<?xml version="1.0" encoding="UTF-8"?>
<svg id="Calque_2" data-name="Calque 2" xmlns="http://www.w3.org/2000/svg" viewBox="0 0 219.13 304.55">
  <defs>
    <style>
      .cls-1 {
        fill: #fff;
      }

      .cls-2 {
        fill: #7a18ea;
      }
    </style>
  </defs>
  <g id="BACKGROUND">
    <g>
      <path class="cls-1" d="m202.7,46.5L165.94,0c-23.81,21.18-24.71,16.32-23.92,16.32-63.98-.86,13.41,21.09-95.45-7.61,29.86,84.33,23.33,34.67,23.89,191.46,0,39.34-35.14,55.29-61.36,41.05-.88-.48-1.74.68-1.03,1.39,38.44,38.53,103.58,9.95,102.6-43.55,0,11.98-.07-76.7-.08-88.66,0-45.63,49.41-42.06,54.11-11.33,2.07-13.53,14.03-23.52,27.79-23.03,22.04.75,26.01,24.63,24.92,20.49,2.07,7.82,6.03-23.44-14.7-50.03Z"/>
      <path class="cls-1" d="m140.74,87.33c6.44-2.19-19.92-6.04-21.16,14.79-1.4,23.45,34.08,25.44,35.29,2.01.41-7.83-4.59-13.65-4.31-10.26.33,4.06-2.59,7.52-6.4,8.07-9,1.3-12.27-11.61-3.42-14.61Z"/>
      <path class="cls-1" d="m205.63,93.86c.34,4.11-2.64,7.53-6.4,8.07-9,1.3-12.27-11.61-3.42-14.61,6.44-2.19-19.92-6.04-21.16,14.79-1.4,23.45,34.08,25.44,35.29,2.01.41-7.85-4.59-13.63-4.31-10.26Z"/>
      <path class="cls-1" d="m161.48,122.32c-20.43,10.83,15.17,45.08,18.91,36.35,6.06-14.16-1.04-45.82-18.91-36.35Z"/>
      <path class="cls-2" d="m150.01,159.77c-14.68-11.13-32.72-.35-32.71,15.47l.02,23.69c.69,37.44-29.42,67.98-66.73,67.98-32.44,0-50.71-23.07-47.25-19.6-12.67-12.7,10.89,55.03,66.28,57.25,112.53,0,127.47-109.11,80.38-144.78Z"/>
    </g>
  </g>
</svg>