<?xml version="1.0" encoding="UTF-8"?>
<svg id="Calque_2" data-name="Calque 2" xmlns="http://www.w3.org/2000/svg" viewBox="0 0 849.9 346.6">
  <defs>
    <style>
      .cls-1, .cls-2 {
        fill: #fff;
      }

      .cls-2 {
        font-family: MontserratAlternates-Bold, 'Montserrat Alternates';
        font-size: 267.35px;
        font-weight: 700;
      }

      .cls-3 {
        fill: #7a18ea;
      }
    </style>
  </defs>
  <g id="BACKGROUND">
    <g>
      <g>
        <path class="cls-1" d="m177.4,40.7L145.23,0c-20.84,18.54-21.63,14.28-20.93,14.28-56-.75,11.74,18.46-83.54-6.66,26.13,73.81,20.42,30.34,20.91,167.57,0,34.43-30.76,48.39-53.7,35.93-.77-.42-1.52.59-.91,1.21,33.64,33.72,90.66,8.71,89.8-38.11,0,10.49-.06-67.13-.07-77.59,0-39.94,43.25-36.81,47.36-9.92,1.81-11.84,12.28-20.58,24.33-20.16,19.29.66,22.76,21.56,21.81,17.94,1.81,6.85,5.27-20.51-12.87-43.79Z"/>
        <path class="cls-1" d="m123.18,76.43c5.64-1.91-17.44-5.28-18.52,12.94-1.22,20.53,29.82,22.27,30.89,1.76.36-6.86-4.02-11.95-3.77-8.98.29,3.55-2.26,6.59-5.6,7.07-7.87,1.13-10.74-10.16-2.99-12.79Z"/>
        <path class="cls-1" d="m179.97,82.15c.3,3.59-2.31,6.59-5.6,7.07-7.87,1.13-10.74-10.16-2.99-12.79,5.64-1.91-17.44-5.28-18.52,12.94-1.22,20.53,29.82,22.27,30.89,1.76.36-6.87-4.01-11.93-3.77-8.98Z"/>
        <path class="cls-1" d="m141.33,107.06c-17.88,9.48,13.28,39.46,16.55,31.81,5.3-12.39-.91-40.1-16.55-31.81Z"/>
        <path class="cls-3" d="m131.29,139.84c-12.85-9.74-28.64-.31-28.63,13.54l.02,20.74c.6,32.76-25.75,59.49-58.4,59.49-28.39,0-44.38-20.19-41.35-17.15-11.09-11.12,9.53,48.17,58.01,50.1,98.48,0,111.56-95.49,70.35-126.71Z"/>
      </g>
      <text class="cls-2" transform="translate(223.51 263.72)"><tspan x="0" y="0">Djeli</tspan></text>
    </g>
  </g>
</svg>