<?xml version="1.0" encoding="UTF-8"?>
<svg id="Calque_1" data-name="Calque 1" xmlns="http://www.w3.org/2000/svg" viewBox="0 0 535.27 743.94">
  <defs>
    <style>
      .cls-1 {
        fill: #fff;
      }

      .cls-2 {
        fill: #7a18ea;
      }
    </style>
  </defs>
  <path class="cls-1" d="m495.14,113.59L405.34,0c-58.15,51.74-60.36,39.86-58.43,39.86-156.29-2.09,32.75,51.52-233.16-18.59,72.94,206,56.99,84.69,58.35,467.68,0,96.1-85.84,135.06-149.88,100.28-2.14-1.16-4.25,1.66-2.53,3.39,93.9,94.11,253.02,24.31,250.63-106.37,0,29.27-.18-187.36-.2-216.56,0-111.47,120.7-102.75,132.17-27.68,5.05-33.06,34.27-57.45,67.9-56.26,53.83,1.84,63.53,60.17,60.86,50.06,5.05,19.11,14.72-57.25-35.91-122.22Z"/>
  <path class="cls-1" d="m343.79,213.32c15.73-5.34-48.67-14.75-51.7,36.12-3.41,57.29,83.24,62.15,86.21,4.92.99-19.14-11.22-33.35-10.53-25.07.81,9.91-6.32,18.38-15.63,19.72-21.98,3.17-29.97-28.35-8.35-35.68Z"/>
  <path class="cls-1" d="m502.3,229.28c.84,10.03-6.44,18.4-15.62,19.72-21.98,3.17-29.97-28.35-8.35-35.68,15.73-5.34-48.67-14.75-51.7,36.12-3.41,57.29,83.24,62.15,86.21,4.92.99-19.18-11.2-33.29-10.53-25.07Z"/>
  <path class="cls-1" d="m394.45,298.79c-49.91,26.45,37.07,110.12,46.19,88.79,14.79-34.58-2.53-111.92-46.19-88.79Z"/>
  <path class="cls-2" d="m366.43,390.29c-35.87-27.18-79.93-.86-79.9,37.78l.05,57.87c1.68,91.45-71.86,166.04-163,166.04-79.24,0-123.87-56.35-115.41-47.88-30.96-31.02,26.59,134.43,161.9,139.84,274.87,0,311.37-266.52,196.36-353.66Z"/>
</svg>